<svg width="48" height="48" viewBox="0 0 48 48" fill="none" xmlns="http://www.w3.org/2000/svg">
<circle cx="24" cy="24" r="22" fill="#A97BFF"/>
<path d="M30.6191 10.9105C29.8339 10.511 28.8735 10.824 28.4741 11.6095L16.6099 34.9447C16.2105 35.7301 16.5235 36.6903 17.3089 37.0897C17.5405 37.2074 17.7874 37.2632 18.0306 37.2632C18.6119 37.2632 19.1722 36.9444 19.4539 36.3907L31.3181 13.0554C31.7175 12.27 31.4045 11.3098 30.6191 10.9105Z" fill="white"/>
<path d="M22.1001 18.595C22.1001 15.2589 19.386 12.5448 16.05 12.5448C12.7141 12.5448 10 15.2589 10 18.595C10 21.9309 12.7141 24.645 16.0501 24.645C19.3861 24.645 22.1001 21.9309 22.1001 18.595ZM16.0501 21.4546C14.4733 21.4546 13.1905 20.1717 13.1905 18.595C13.1905 17.0181 14.4733 15.7353 16.0501 15.7353C17.6269 15.7353 18.9098 17.018 18.9098 18.595C18.9097 20.1717 17.6269 21.4546 16.0501 21.4546Z" fill="white"/>
<path d="M31.95 23.3553C28.6139 23.3553 25.8998 26.0695 25.8998 29.4054C25.8998 32.7414 28.6138 35.4555 31.95 35.4555C35.2859 35.4555 38 32.7415 38 29.4054C38 26.0694 35.286 23.3553 31.95 23.3553ZM31.95 32.2649C30.3731 32.2649 29.0902 30.982 29.0902 29.4053C29.0902 27.8286 30.3731 26.5457 31.95 26.5457C33.5267 26.5457 34.8096 27.8286 34.8096 29.4053C34.8096 30.982 33.5268 32.2649 31.95 32.2649Z" fill="white"/>
</svg>