<svg width="16" height="16" viewBox="0 0 16 16" fill="none" xmlns="http://www.w3.org/2000/svg">
<path d="M6.3958 1H2.0208C1.4579 1 1 1.4579 1 2.0208V4.6458C1 5.2088 1.4579 5.6667 2.0208 5.6667H6.3958C6.9588 5.6667 7.4167 5.2088 7.4167 4.6458V2.0208C7.4167 1.4579 6.9588 1 6.3958 1Z" fill="white"/>
<path d="M6.3958 6.83325H2.0208C1.4579 6.83325 1 7.29115 1 7.85416V13.9792C1 14.5421 1.4579 15 2.0208 15H6.3958C6.9588 15 7.4167 14.5421 7.4167 13.9792V7.85416C7.4167 7.29115 6.9588 6.83325 6.3958 6.83325Z" fill="white"/>
<path d="M13.9792 10.3333H9.60416C9.04115 10.3333 8.58325 10.7912 8.58325 11.3542V13.9792C8.58325 14.5421 9.04115 15 9.60416 15H13.9792C14.5421 15 15 14.5421 15 13.9792V11.3542C15 10.7912 14.5421 10.3333 13.9792 10.3333Z" fill="white"/>
<path d="M13.9792 1H9.60416C9.04115 1 8.58325 1.4579 8.58325 2.0208V8.1458C8.58325 8.7088 9.04115 9.1667 9.60416 9.1667H13.9792C14.5421 9.1667 15 8.7088 15 8.1458V2.0208C15 1.4579 14.5421 1 13.9792 1V1Z" fill="white"/>
</svg>
