<svg width="40" height="40" viewBox="0 0 40 40" fill="none" xmlns="http://www.w3.org/2000/svg">
<g clip-path="url(#clip0_5676:30687)">
<path d="M14.6006 14.1352C14.6346 14.084 14.677 14.0243 14.711 13.9731C14.711 13.9646 14.711 13.9561 14.711 13.9561C14.711 11.0386 17.0709 8.66709 19.9742 8.66709C22.8774 8.66709 25.2373 11.0386 25.2373 13.9561C25.2373 13.9646 25.2373 13.9731 25.2373 13.9731C25.2713 14.0243 25.3137 14.084 25.3477 14.1352C26.0692 15.2101 27.5463 15.5939 28.6584 14.9371C28.964 14.7579 29.2611 14.5703 29.5497 14.3741C30.0675 14.0243 30.3562 13.4101 30.2882 12.7788V12.7533C30.2288 12.2329 30.4326 11.7125 30.8231 11.3713L32.402 9.98081C32.9368 9.50309 33.0641 8.70975 32.6906 8.09554L30.9928 5.2975C30.6193 4.6833 29.8638 4.42738 29.1932 4.69183L27.2152 5.45959C26.7314 5.64726 26.1966 5.58755 25.7636 5.2975C25.3052 4.98187 24.8129 4.70889 24.3035 4.47004C23.8366 4.25677 23.5056 3.82171 23.4207 3.30987L23.0557 1.23694C22.9368 0.520367 22.3171 0 21.5871 0H18.3528C17.6227 0 17.003 0.520367 16.8842 1.24547L16.5192 3.31841C16.4343 3.83024 16.1032 4.2653 15.6363 4.47857C15.127 4.71742 14.6431 4.9904 14.1762 5.30604C13.7517 5.59608 13.2085 5.65579 12.7246 5.46812L10.7721 4.70036C10.093 4.43591 9.329 4.69183 8.947 5.31457L7.26618 8.09554C6.89267 8.70975 7.01151 9.50309 7.55481 9.98081L9.13375 11.3713C9.52425 11.7211 9.72798 12.2329 9.66856 12.7618C9.59216 13.4016 9.88078 14.0328 10.4156 14.3911C10.7042 14.5873 10.9928 14.7665 11.2899 14.9456C12.4275 15.611 13.8706 15.2357 14.6006 14.1352Z" fill="white"/>
<path d="M15.9932 30.5912C15.9253 30.5826 15.8659 30.5826 15.798 30.5741C15.7895 30.5741 15.7895 30.5826 15.781 30.5826C13.2683 32.0414 10.0425 31.1798 8.59087 28.6462C7.13925 26.1211 7.99664 22.8795 10.5179 21.4208C10.5263 21.4208 10.5263 21.4122 10.5348 21.4122C10.5603 21.3525 10.5858 21.2928 10.6197 21.2331C11.1885 20.0729 10.781 18.5886 9.65199 17.9488C9.34638 17.7782 9.03229 17.6076 8.7182 17.454C8.15793 17.1725 7.47881 17.2408 6.97796 17.6161L6.96098 17.6332C6.53654 17.9488 5.99324 18.0341 5.50088 17.8635L3.51447 17.1811C2.83535 16.9507 2.08832 17.2408 1.74876 17.872L0.178303 20.7554C-0.161256 21.3867 -0.00845424 22.18 0.551817 22.6236L2.20717 23.9544C2.61464 24.2785 2.82686 24.7818 2.7929 25.2937C2.75046 25.8482 2.75895 26.4112 2.80988 26.9742C2.86082 27.486 2.64859 27.9893 2.2581 28.322L0.645196 29.6784C0.0849243 30.1476 -0.0508991 30.9495 0.314126 31.5807L1.92703 34.3958C2.29205 35.0271 3.05606 35.3086 3.73518 35.0527L5.70462 34.3276C6.18849 34.1484 6.72329 34.2252 7.14774 34.5152C7.60615 34.8394 8.09002 35.1295 8.58238 35.3683C9.04927 35.5986 9.37185 36.0337 9.44825 36.5541L9.76234 38.6441C9.8727 39.3692 10.4754 39.9066 11.2055 39.9237L14.4483 40.0004C15.1613 40.0175 15.7895 39.5142 15.9338 38.8061L16.3413 36.7332C16.4432 36.2214 16.7912 35.7863 17.2666 35.573C17.8523 35.3171 18.2513 34.7541 18.2938 34.1058C18.3192 33.7646 18.3277 33.4148 18.3277 33.065C18.3532 31.7513 17.309 30.685 15.9932 30.5912Z" fill="white"/>
<path d="M29.3891 21.1477C29.4145 21.2074 29.4485 21.2671 29.4739 21.3268C29.4824 21.3268 29.4824 21.3354 29.4909 21.3354C32.0037 22.7941 32.8695 26.0272 31.4179 28.5608C29.9663 31.0858 26.749 31.9559 24.2278 30.4972C24.2193 30.4972 24.2193 30.4887 24.2108 30.4887C24.1429 30.4972 24.0835 30.4972 24.0156 30.5057C22.7252 30.5911 21.6556 31.6915 21.6641 32.9882C21.6641 33.3379 21.6811 33.6962 21.7066 34.0459C21.749 34.6772 22.1395 35.2317 22.7167 35.4791L22.7337 35.4876C23.2091 35.7009 23.5572 36.1274 23.659 36.6478L24.0665 38.7207C24.2023 39.4288 24.8305 39.9321 25.5521 39.915L28.8118 39.8382C29.5249 39.8212 30.1276 39.2923 30.238 38.5757L30.552 36.4772C30.6284 35.9653 30.951 35.5217 31.4179 35.2914C31.9188 35.044 32.4026 34.7625 32.8526 34.4384C33.2685 34.1398 33.8118 34.0715 34.2957 34.2507L36.2651 34.9758C36.9442 35.2232 37.7082 34.9502 38.0733 34.3189L39.6862 31.5038C40.0512 30.8726 39.9069 30.0707 39.3551 29.6015L37.7422 28.2451C37.3517 27.9124 37.1395 27.4091 37.1904 26.8973C37.2413 26.3343 37.2498 25.7713 37.2074 25.2168C37.1734 24.6964 37.3941 24.2016 37.7931 23.8775L39.4315 22.5638C40.0002 22.1116 40.1615 21.3098 39.8135 20.67L38.26 17.8037C37.9205 17.1724 37.1734 16.8824 36.4943 17.1127L34.5079 17.7952C34.0155 17.9658 33.4638 17.8805 33.0478 17.5648C32.53 17.1809 31.8509 17.1212 31.2736 17.4027C30.968 17.5563 30.6624 17.7184 30.3568 17.889C29.2108 18.5203 28.8033 19.9619 29.3891 21.1477Z" fill="white"/>
<path d="M17.521 15.6365C18.5906 13.7683 21.2816 13.7683 22.3512 15.6365L24.4225 19.2449L26.4938 22.8534C27.5634 24.7216 26.2221 27.059 24.0744 27.059H19.9318H15.7892C13.6415 27.059 12.3002 24.7216 13.3698 22.8534L15.4412 19.2449L17.521 15.6365Z" fill="white"/>
</g>
<defs>
<clipPath id="clip0_5676:30687">
<rect width="40" height="40" fill="white"/>
</clipPath>
</defs>
</svg>