<svg width="16" height="16" viewBox="0 0 16 16" fill="none" xmlns="http://www.w3.org/2000/svg">
<g clip-path="url(#clip0_5742:355)">
<path d="M7.31316 8.42877L8.54876 4.99258C8.61103 4.81945 8.80016 4.73005 8.97117 4.7931L12.4516 6.07571C12.6226 6.13876 12.7109 6.33023 12.6486 6.50336L10.5659 12.2963C10.4789 12.5388 10.6022 12.8067 10.8417 12.8947L11.9564 13.3054C12.1959 13.3934 12.4605 13.2687 12.5475 13.0262L13.5676 10.1884C13.5985 10.102 13.6931 10.0573 13.7788 10.0887L13.9399 10.148C14.1794 10.2361 14.444 10.1113 14.531 9.86883L14.821 9.06191C14.9079 8.81939 14.7847 8.55153 14.5452 8.46347L14.3841 8.40409C14.2987 8.37273 14.2546 8.277 14.2855 8.19026L14.7422 6.91966L15.3056 5.35251C15.3926 5.11 15.2694 4.84214 15.0299 4.75407L13.4819 4.18365L12.249 3.72932C12.1636 3.69796 12.1195 3.60222 12.1504 3.51549L12.2091 3.35237C12.2961 3.10986 12.1728 2.842 11.9333 2.75393L10.8186 2.3433C10.5791 2.25523 10.3145 2.37999 10.2275 2.6225L10.1689 2.78562C10.1379 2.87202 10.0433 2.91672 9.95767 2.88536L7.83442 2.10246C7.59488 2.01439 7.3303 2.13915 7.24331 2.38166L6.67988 3.94881L5.3316 7.69857C5.24462 7.94108 5.36785 8.20895 5.60739 8.29701L6.72206 8.70765C6.96127 8.79604 7.22618 8.67129 7.31316 8.42877Z" fill="white"/>
<path d="M8.68834 6.90482L7.45275 10.3413C7.39047 10.5145 7.20134 10.6039 7.03034 10.5408L3.55025 9.25789C3.37924 9.19484 3.29094 9.00337 3.35321 8.83024L5.43593 3.03731C5.52291 2.7948 5.39968 2.52694 5.16014 2.43887L4.04547 2.02824C3.80593 1.94017 3.54135 2.06493 3.45436 2.30744L2.43393 5.1452C2.40296 5.23159 2.30839 5.27629 2.22272 5.24494L2.0616 5.18556C1.82206 5.09749 1.55748 5.22225 1.47049 5.46476L1.18054 6.27169C1.09356 6.5142 1.21679 6.78207 1.45633 6.87013L1.61745 6.92951C1.70279 6.96086 1.74694 7.0566 1.71597 7.14333L1.25929 8.41393L0.69586 9.98108C0.608874 10.2236 0.732104 10.4915 0.971644 10.5795L2.5196 11.1499L3.75223 11.6043C3.83756 11.6356 3.88172 11.7314 3.85074 11.8181L3.79209 11.9812C3.70511 12.2237 3.82834 12.4916 4.06788 12.5797L5.18354 12.9906C5.42308 13.0787 5.68766 12.9539 5.77465 12.7114L5.83329 12.5483C5.86427 12.4619 5.95883 12.4172 6.0445 12.4486L8.16774 13.2308C8.40728 13.3189 8.67187 13.1941 8.75885 12.9516L9.32228 11.3844L10.6706 7.63469C10.7575 7.39218 10.6343 7.12432 10.3948 7.03625L9.28011 6.62562C9.04024 6.53755 8.77533 6.66231 8.68834 6.90482Z" fill="white"/>
</g>
<defs>
<clipPath id="clip0_5742:355">
<rect width="14.6667" height="11.3333" fill="white" transform="translate(0.666992 2)"/>
</clipPath>
</defs>
</svg>
