<svg width="16" height="16" viewBox="0 0 16 16" fill="none" xmlns="http://www.w3.org/2000/svg">
<path d="M7.68254 3.88246C7.62633 3.52362 7.53077 3.15909 7.38461 2.79456C7.36212 2.7433 7.33964 2.68634 7.31715 2.63508C7.31153 2.61799 7.30029 2.6009 7.29467 2.58382C7.2778 2.54964 7.26094 2.51547 7.24408 2.48129C7.23283 2.45851 7.22159 2.44142 7.21597 2.41864C7.1991 2.39016 7.18786 2.35598 7.171 2.3275C7.15976 2.30472 7.14851 2.28763 7.13727 2.26485C7.11478 2.21928 7.0923 2.17941 7.06419 2.13954C7.04733 2.11106 7.03046 2.08258 7.0136 2.05411C7.00236 2.03702 6.99111 2.01993 6.98549 2.00284C6.96863 1.97436 6.95176 1.94589 6.92928 1.91741C6.91804 1.90602 6.91241 1.88893 6.90117 1.87754C6.87869 1.84906 6.86182 1.81488 6.83934 1.7864C6.5133 1.30796 6.13104 0.926338 5.73193 0.664331C5.60825 0.58459 5.48458 0.51624 5.36091 0.459282C5.23724 0.402324 5.11357 0.356758 4.9899 0.322583C4.95055 0.311191 4.9112 0.305496 4.86623 0.294104C4.86623 0.294104 4.86623 0.294104 4.86061 0.294104C4.82126 0.288408 4.78753 0.282712 4.74818 0.277017C4.74256 0.277017 4.74256 0.277017 4.73694 0.277017C4.69759 0.271321 4.66386 0.271321 4.62451 0.265625C4.61889 0.265625 4.61889 0.265625 4.61327 0.265625C4.57954 0.265625 4.54019 0.265625 4.50647 0.265625C4.50084 0.265625 4.49522 0.265625 4.4896 0.265625C4.45587 0.265625 4.42214 0.265625 4.38842 0.271321C4.3828 0.271321 4.37155 0.271321 4.36593 0.271321C4.3322 0.271321 4.3041 0.277017 4.27599 0.282712C4.26475 0.282712 4.25912 0.282712 4.24788 0.288408C4.21977 0.294104 4.19167 0.2998 4.15794 0.305496C4.1467 0.305496 4.13545 0.311191 4.12421 0.311191C4.0961 0.316887 4.07362 0.328279 4.04551 0.333975C4.03427 0.33967 4.01741 0.33967 4.00616 0.345366C3.98368 0.351062 3.96119 0.362454 3.93871 0.368149C3.92184 0.368149 3.90498 0.373845 3.88811 0.385237C3.84876 0.402324 3.81504 0.419412 3.77569 0.436499C3.61267 0.521936 3.46089 0.635852 3.3316 0.772551C3.15733 0.954817 3.01118 1.18265 2.89875 1.43896C2.90999 1.39909 2.92124 1.36491 2.9381 1.32504L2.51088 2.37877L1.9375 2.65216C1.9375 2.65216 1.9375 2.65216 1.94312 2.65216C1.89815 2.66356 1.85317 2.68064 1.8082 2.69204C1.70702 2.72621 1.61146 2.76608 1.51589 2.81165C1.42033 2.85721 1.33601 2.90278 1.25169 2.95974C0.959376 3.142 0.728899 3.38123 0.582744 3.67741C0.582744 3.6831 0.577122 3.6831 0.577122 3.6888C0.560258 3.72298 0.549015 3.75145 0.532151 3.78563C0.172383 4.64 0.605229 5.68803 1.55524 6.49683C1.56086 6.50252 1.57211 6.50822 1.57773 6.51392C1.61708 6.54809 1.65643 6.57657 1.69578 6.61074C1.70702 6.62214 1.71826 6.62783 1.73513 6.63922C1.76885 6.6677 1.8082 6.69049 1.84193 6.71897C1.8588 6.73036 1.87566 6.74175 1.89252 6.75314C1.92625 6.77592 1.95998 6.79871 1.99371 6.82719C2.01057 6.83858 2.03306 6.84997 2.04992 6.86136C2.08365 6.88414 2.11738 6.90693 2.15111 6.92971C2.17359 6.9411 2.19046 6.95249 2.21294 6.96958C2.24667 6.99236 2.2804 7.00945 2.31975 7.03223C2.34223 7.04363 2.36472 7.05502 2.38158 7.06641C2.41531 7.08919 2.45466 7.10628 2.48839 7.12337C2.51088 7.13476 2.53336 7.14615 2.55023 7.15754C2.58958 7.18033 2.62892 7.19741 2.6739 7.2145C2.69076 7.22589 2.71325 7.23159 2.73011 7.24298C2.79194 7.27146 2.85378 7.29994 2.91562 7.32272C3.57332 7.60181 4.23664 7.69295 4.84375 7.68725C5.00677 7.68155 5.16979 7.67586 5.32157 7.65877C5.37216 7.65308 5.42275 7.64738 5.47334 7.64168C6.32217 7.52207 6.95739 7.22589 7.12041 7.05502C7.23845 6.9411 7.41272 6.59935 7.54763 6.12091C7.56449 6.06964 7.57574 6.01269 7.5926 5.95573C7.67692 5.60828 7.73876 5.19819 7.75 4.75391C7.75 4.69696 7.75 4.64 7.75 4.58304C7.73876 4.35521 7.71627 4.12168 7.68254 3.88246Z" fill="#41C3FB"/>
<path d="M3.84164 8.24585C3.48686 8.30276 3.12644 8.3995 2.76602 8.54746C2.71534 8.57022 2.65902 8.59298 2.60834 8.61575C2.59144 8.62144 2.57455 8.63282 2.55765 8.63851C2.52386 8.65558 2.49008 8.67265 2.45629 8.68972C2.43376 8.7011 2.41687 8.71249 2.39434 8.71818C2.36618 8.73525 2.33239 8.74663 2.30424 8.7637C2.28171 8.77508 2.26482 8.78646 2.24229 8.79785C2.19724 8.82061 2.15782 8.84337 2.1184 8.87182C2.09024 8.8889 2.06208 8.90597 2.03392 8.92304C2.01703 8.93442 2.00013 8.9458 1.98324 8.95149C1.95508 8.96857 1.92692 8.98564 1.89877 9.0084C1.8875 9.01978 1.87061 9.02547 1.85935 9.03685C1.83119 9.05962 1.7974 9.07669 1.76924 9.09945C1.29619 9.42951 0.918881 9.81647 0.659831 10.2205C0.58099 10.3457 0.513412 10.4709 0.457097 10.5961C0.400782 10.7213 0.355729 10.8465 0.32194 10.9717C0.310677 11.0115 0.305046 11.0513 0.293783 11.0969C0.293783 11.0969 0.293783 11.0969 0.293783 11.1026C0.288151 11.1424 0.28252 11.1765 0.276888 11.2164C0.276888 11.2221 0.276888 11.2221 0.276888 11.2278C0.271257 11.2676 0.271257 11.3017 0.265625 11.3416C0.265625 11.3473 0.265625 11.3473 0.265625 11.3529C0.265625 11.3871 0.265625 11.4269 0.265625 11.4611C0.265625 11.4668 0.265625 11.4724 0.265625 11.4781C0.265625 11.5123 0.265625 11.5464 0.271257 11.5806C0.271257 11.5863 0.271257 11.5976 0.271257 11.6033C0.271257 11.6375 0.276888 11.6659 0.28252 11.6944C0.28252 11.7058 0.28252 11.7115 0.288151 11.7228C0.293783 11.7513 0.299414 11.7797 0.305046 11.8139C0.305046 11.8253 0.310677 11.8366 0.310677 11.848C0.316309 11.8765 0.327572 11.8992 0.333203 11.9277C0.338835 11.9391 0.338835 11.9562 0.344466 11.9675C0.350098 11.9903 0.361361 12.0131 0.366992 12.0358C0.372624 12.0529 0.378255 12.07 0.383887 12.087C0.400782 12.1269 0.417676 12.161 0.434571 12.2008C0.519043 12.3659 0.631674 12.5195 0.76683 12.6504C0.947039 12.8268 1.1723 12.9748 1.42572 13.0886C1.3863 13.0772 1.35251 13.0658 1.31309 13.0488L2.35492 13.4812L2.6196 14.0617C2.6196 14.0617 2.6196 14.0617 2.6196 14.056C2.63086 14.1015 2.64776 14.147 2.65902 14.1926C2.69281 14.295 2.73223 14.3917 2.77728 14.4885C2.82234 14.5852 2.86739 14.6706 2.9237 14.7559C3.10954 15.0519 3.34607 15.2852 3.63891 15.4331C3.64454 15.4331 3.64454 15.4388 3.65017 15.4388C3.68396 15.4559 3.71212 15.4673 3.74591 15.4843C4.59627 15.8429 5.62683 15.4104 6.43214 14.443C6.43777 14.4373 6.4434 14.4259 6.44904 14.4202C6.48282 14.3804 6.51098 14.3405 6.54477 14.3007C6.55603 14.2893 6.56167 14.2779 6.57293 14.2609C6.60109 14.2267 6.62361 14.1869 6.65177 14.1527C6.66303 14.1357 6.6743 14.1186 6.68556 14.1015C6.70809 14.0674 6.73061 14.0332 6.75877 13.9991C6.77003 13.982 6.7813 13.9593 6.79256 13.9422C6.81508 13.908 6.83761 13.8739 6.86014 13.8398C6.8714 13.817 6.88266 13.7999 6.89956 13.7772C6.92208 13.743 6.93898 13.7089 6.9615 13.669C6.97277 13.6463 6.98403 13.6235 6.99529 13.6064C7.01782 13.5723 7.03471 13.5325 7.05161 13.4983C7.06287 13.4756 7.07413 13.4528 7.0854 13.4357C7.10792 13.3959 7.12482 13.356 7.14171 13.3105C7.15298 13.2935 7.15861 13.2707 7.16987 13.2536C7.19803 13.191 7.22619 13.1284 7.24871 13.0658C7.52466 12.4 7.61476 11.7285 7.60913 11.1139C7.6035 10.9489 7.59787 10.7839 7.58097 10.6302C7.57534 10.579 7.56971 10.5278 7.56408 10.4766C7.44581 9.6173 7.15298 8.97426 6.98403 8.80923C6.8714 8.68972 6.53351 8.51331 6.06046 8.37674C6.00978 8.35967 5.95346 8.34829 5.89715 8.33121C5.55362 8.24585 5.14815 8.18326 4.7089 8.17188C4.65258 8.17188 4.59626 8.17188 4.53995 8.17188C4.30906 8.18895 4.07817 8.20602 3.84164 8.24585Z" fill="#41C3FB"/>
<path d="M8.3232 12.1203C8.37951 12.4789 8.47523 12.8431 8.62164 13.2074C8.64416 13.2586 8.66668 13.3155 8.68921 13.3667C8.69484 13.3838 8.7061 13.4009 8.71173 13.418C8.72862 13.4521 8.74552 13.4863 8.76241 13.5204C8.77367 13.5432 8.78493 13.5602 8.79056 13.583C8.80746 13.6115 8.81872 13.6456 8.83561 13.6741C8.84687 13.6968 8.85813 13.7139 8.8694 13.7367C8.89192 13.7822 8.91444 13.8221 8.9426 13.8619C8.95949 13.8904 8.97638 13.9188 8.99327 13.9473C9.00454 13.9643 9.0158 13.9814 9.02143 13.9985C9.03832 14.0269 9.05521 14.0554 9.07774 14.0839C9.089 14.0952 9.09463 14.1123 9.10589 14.1237C9.12842 14.1522 9.14531 14.1863 9.16783 14.2148C9.49442 14.6928 9.87732 15.0742 10.2771 15.336C10.401 15.4157 10.5249 15.484 10.6487 15.5409C10.7726 15.5978 10.8965 15.6433 11.0204 15.6775C11.0598 15.6888 11.0992 15.6945 11.1443 15.7059C11.1443 15.7059 11.1443 15.7059 11.1499 15.7059C11.1893 15.7116 11.2231 15.7173 11.2625 15.723C11.2681 15.723 11.2681 15.723 11.2738 15.723C11.3132 15.7287 11.347 15.7287 11.3864 15.7344C11.392 15.7344 11.392 15.7344 11.3977 15.7344C11.4314 15.7344 11.4709 15.7344 11.5046 15.7344C11.5103 15.7344 11.5159 15.7344 11.5215 15.7344C11.5553 15.7344 11.5891 15.7344 11.6229 15.7287C11.6285 15.7287 11.6398 15.7287 11.6454 15.7287C11.6792 15.7287 11.7074 15.723 11.7355 15.7173C11.7468 15.7173 11.7524 15.7173 11.7637 15.7116C11.7918 15.7059 11.82 15.7002 11.8538 15.6945C11.865 15.6945 11.8763 15.6888 11.8875 15.6888C11.9157 15.6832 11.9382 15.6718 11.9664 15.6661C11.9776 15.6604 11.9945 15.6604 12.0058 15.6547C12.0283 15.649 12.0508 15.6376 12.0734 15.6319C12.0903 15.6262 12.1071 15.6205 12.124 15.6149C12.1635 15.5978 12.1972 15.5807 12.2367 15.5636C12.3999 15.4783 12.552 15.3644 12.6815 15.2278C12.856 15.0457 13.0025 14.8181 13.1151 14.5619C13.1038 14.6018 13.0925 14.6359 13.0757 14.6758L13.5036 13.6229L14.0779 13.3554C14.0779 13.3554 14.0779 13.3554 14.0723 13.3554C14.1174 13.344 14.1624 13.3269 14.2075 13.3155C14.3088 13.2814 14.4045 13.2415 14.5003 13.196C14.596 13.1505 14.6804 13.1049 14.7649 13.048C15.0577 12.8602 15.2886 12.6212 15.435 12.3252C15.435 12.3195 15.4406 12.3195 15.4406 12.3138C15.4575 12.2797 15.4688 12.2512 15.4857 12.2171C15.8404 11.3577 15.4125 10.3161 14.4552 9.50226C14.4496 9.49657 14.4383 9.49088 14.4327 9.48518C14.3933 9.45104 14.3539 9.42258 14.3144 9.38843C14.3032 9.37705 14.2919 9.37135 14.275 9.35997C14.2412 9.33151 14.2018 9.30875 14.168 9.28029C14.1511 9.26891 14.1343 9.25753 14.1174 9.24614C14.0836 9.22338 14.0498 9.20061 14.016 9.17216C13.9991 9.16077 13.9766 9.14939 13.9597 9.13801C13.9259 9.11524 13.8921 9.09248 13.8583 9.06971C13.8358 9.05833 13.8189 9.04694 13.7964 9.02987C13.7626 9.0071 13.7288 8.99003 13.6894 8.96726C13.6669 8.95588 13.6444 8.9445 13.6275 8.93311C13.5937 8.91035 13.5543 8.89327 13.5205 8.8762C13.498 8.86482 13.4754 8.85343 13.4586 8.84205C13.4191 8.81929 13.3797 8.80221 13.3347 8.78514C13.3178 8.77375 13.2953 8.76806 13.2784 8.75668C13.2164 8.72822 13.1545 8.69977 13.0925 8.677C12.4337 8.39812 11.7693 8.30706 11.1612 8.31275C10.9979 8.31844 10.8346 8.32413 10.6825 8.34121C10.6319 8.3469 10.5812 8.35259 10.5305 8.35828C9.68024 8.4778 9.04395 8.77376 8.88066 8.9445C8.76241 9.05833 8.58785 9.39981 8.45271 9.87789C8.43582 9.92912 8.42456 9.98603 8.40766 10.0429C8.3232 10.3901 8.26126 10.7999 8.25 11.2438C8.25 11.3008 8.25 11.3577 8.25 11.4146C8.26689 11.6536 8.28379 11.887 8.3232 12.1203Z" fill="#41C3FB"/>
<path d="M12.1584 7.76977C12.5131 7.71287 12.8736 7.61612 13.234 7.46817C13.2847 7.44541 13.341 7.42264 13.3917 7.39988C13.4086 7.39419 13.4255 7.38281 13.4423 7.37712C13.4761 7.36005 13.5099 7.34297 13.5437 7.3259C13.5662 7.31452 13.5831 7.30314 13.6057 7.29745C13.6338 7.28038 13.6676 7.269 13.6958 7.25192C13.7183 7.24054 13.7352 7.22916 13.7577 7.21778C13.8028 7.19502 13.8422 7.17225 13.8816 7.1438C13.9098 7.12673 13.9379 7.10966 13.9661 7.09259C13.983 7.0812 13.9999 7.06982 14.0168 7.06413C14.0449 7.04706 14.0731 7.02999 14.1012 7.00723C14.1125 6.99584 14.1294 6.99015 14.1407 6.97877C14.1688 6.95601 14.2026 6.93894 14.2308 6.91618C14.7038 6.58612 15.0811 6.19915 15.3402 5.79512C15.419 5.66992 15.4866 5.54473 15.5429 5.41954C15.5992 5.29434 15.6443 5.16915 15.6781 5.04395C15.6893 5.00412 15.695 4.96429 15.7062 4.91876C15.7062 4.91876 15.7062 4.91876 15.7062 4.91307C15.7118 4.87323 15.7175 4.83909 15.7231 4.79926C15.7231 4.79357 15.7231 4.79357 15.7231 4.78788C15.7287 4.74804 15.7287 4.7139 15.7344 4.67406C15.7344 4.66837 15.7344 4.66837 15.7344 4.66268C15.7344 4.62854 15.7344 4.5887 15.7344 4.55456C15.7344 4.54887 15.7344 4.54318 15.7344 4.53749C15.7344 4.50334 15.7344 4.4692 15.7287 4.43506C15.7287 4.42937 15.7287 4.41798 15.7287 4.41229C15.7287 4.37815 15.7231 4.3497 15.7175 4.32124C15.7175 4.30986 15.7175 4.30417 15.7118 4.29279C15.7062 4.26434 15.7006 4.23588 15.695 4.20174C15.695 4.19036 15.6893 4.17898 15.6893 4.1676C15.6837 4.13914 15.6724 4.11638 15.6668 4.08793C15.6612 4.07654 15.6612 4.05947 15.6555 4.04809C15.6499 4.02533 15.6386 4.00257 15.633 3.9798C15.6274 3.96273 15.6217 3.94566 15.6161 3.92859C15.5992 3.88875 15.5823 3.85461 15.5654 3.81478C15.481 3.64975 15.3683 3.4961 15.2332 3.36521C15.053 3.1888 14.8277 3.04085 14.5743 2.92704C14.6137 2.93842 14.6475 2.9498 14.6869 2.96687L13.6451 2.53438L13.3804 1.95394C13.3804 1.95394 13.3804 1.95394 13.3804 1.95963C13.3691 1.9141 13.3522 1.86858 13.341 1.82305C13.3072 1.72062 13.2678 1.62388 13.2227 1.52714C13.1777 1.4304 13.1326 1.34504 13.0763 1.25968C12.8905 0.963764 12.6539 0.730448 12.3611 0.582491C12.3555 0.582491 12.3555 0.5768 12.3498 0.5768C12.316 0.559728 12.2879 0.548347 12.2541 0.531275C11.4037 0.172765 10.3732 0.605254 9.56786 1.57266C9.56223 1.57835 9.5566 1.58973 9.55096 1.59543C9.51718 1.63526 9.48902 1.67509 9.45523 1.71493C9.44397 1.72631 9.43833 1.73769 9.42707 1.75476C9.39891 1.78891 9.37639 1.82874 9.34823 1.86289C9.33697 1.87996 9.3257 1.89703 9.31444 1.9141C9.29191 1.94825 9.26939 1.98239 9.24123 2.01653C9.22997 2.0336 9.2187 2.05637 9.20744 2.07344C9.18492 2.10758 9.16239 2.14173 9.13986 2.17587C9.1286 2.19863 9.11734 2.21571 9.10044 2.23847C9.07792 2.27261 9.06102 2.30676 9.0385 2.34659C9.02723 2.36935 9.01597 2.39212 9.00471 2.40919C8.98218 2.44333 8.96529 2.48317 8.94839 2.51731C8.93713 2.54007 8.92587 2.56283 8.9146 2.57991C8.89208 2.61974 8.87518 2.65958 8.85829 2.7051C8.84702 2.72217 8.84139 2.74494 8.83013 2.76201C8.80197 2.8246 8.77381 2.8872 8.75129 2.9498C8.47534 3.6156 8.38524 4.2871 8.39087 4.90169C8.3965 5.06672 8.40213 5.23175 8.41903 5.38539C8.42466 5.43661 8.43029 5.48782 8.43592 5.53904C8.55419 6.39833 8.84702 7.04137 9.01597 7.2064C9.1286 7.3259 9.46649 7.50231 9.93954 7.63889C9.99022 7.65596 10.0465 7.66734 10.1029 7.68441C10.4464 7.76977 10.8518 7.83237 11.2911 7.84375C11.3474 7.84375 11.4037 7.84375 11.4601 7.84375C11.6966 7.82668 11.9275 7.80392 12.1584 7.76977Z" fill="#41C3FB"/>
</svg>