<svg width="32" height="32" viewBox="0 0 32 32" fill="none" xmlns="http://www.w3.org/2000/svg">
<path d="M24.4839 20.9184C23.7774 20.9184 23.121 20.5675 22.729 19.9791L21.8088 18.599C20.9832 20.4085 19.2775 21.7876 17.2662 22.1975C17.2504 22.2002 17.2353 22.2037 17.2202 22.2078C16.4251 22.3644 15.595 22.3657 14.7614 22.2064C12.5465 21.7622 10.7199 20.1933 9.9859 18.106H10.3286C10.888 18.106 11.2248 17.4806 10.9135 17.013L8.1012 12.7945C7.84029 12.4031 7.19211 12.4031 6.93125 12.7945L4.11893 17.013C3.80872 17.4768 4.14139 18.1061 4.70389 18.1061H5.61847C6.57987 22.8207 10.8327 26.5431 16.0423 26.5431C18.8927 26.5431 21.7075 25.3644 23.7246 23.2245C24.4331 22.4663 25.0265 21.599 25.4929 20.6598C25.1878 20.8261 24.8428 20.9184 24.4839 20.9184Z" fill="white"/>
<path d="M27.2962 13.8877H26.3823C25.2934 8.52805 20.1141 4.82797 14.5801 5.54548C10.8993 6.0868 8.01328 8.34289 6.51965 11.3596C7.43437 10.911 8.68064 11.1283 9.27112 12.0147L10.1949 13.4004C11.005 11.6276 12.6604 10.2685 14.6201 9.82944C17.907 9.13953 20.9697 10.9604 22.012 13.8877H21.6714C21.1089 13.8877 20.7763 14.5169 21.0865 14.9808L23.8988 19.1992C24.1769 19.6163 24.7907 19.6163 25.0688 19.1992L27.8811 14.9808C28.1925 14.5131 27.8556 13.8877 27.2962 13.8877Z" fill="white"/>
</svg>